<svg xmlns="http://www.w3.org/2000/svg" width="86" height="86" viewBox="0 0 86 86">
  <g id="ic_about_client" transform="translate(-1379 -392)">
    <rect id="border" width="86" height="86" transform="translate(1379 392)" fill="none" opacity="0"/>
    <g id="ic_about_client-2" data-name="ic_about_client" transform="translate(1.044 -0.044)">
      <path id="Path_12941" data-name="Path 12941" d="M54.588,0H9.412C4.215,0,0,3.847,0,8.59V69.41C0,74.153,4.215,78,9.412,78H54.588C59.785,78,64,74.153,64,69.41V8.59C64,3.847,59.785,0,54.588,0Zm5.647,69.41a5.434,5.434,0,0,1-5.647,5.154H9.412A5.434,5.434,0,0,1,3.765,69.41V8.59A5.434,5.434,0,0,1,9.412,3.436H54.588A5.434,5.434,0,0,1,60.235,8.59Zm0,0" transform="translate(1459.956 403.044) rotate(90)" fill="#6353f4" stroke="#6353f4" stroke-width="1.8"/>
      <g id="Group_3827" data-name="Group 3827" transform="translate(1391.749 419.02)">
        <g id="Group_3820" data-name="Group 3820" transform="translate(0)">
          <path id="Path_12932" data-name="Path 12932" d="M122.309,325.123a13.158,13.158,0,0,0-9.656,4.147,14.852,14.852,0,0,0-3.986,10.359,1.747,1.747,0,0,0,1.718,1.765h23.846a1.747,1.747,0,0,0,1.718-1.765,14.852,14.852,0,0,0-3.986-10.359,13.157,13.157,0,0,0-9.655-4.147Zm-10.085,12.741a10.912,10.912,0,0,1,2.886-6.124,9.934,9.934,0,0,1,14.4,0,10.969,10.969,0,0,1,2.886,6.124Zm0,0" transform="translate(-108.668 -310.268)" fill="#6353f4" stroke="#6353f4" stroke-width="1"/>
          <path id="Path_12931" data-name="Path 12931" d="M152.175,190.247a9.127,9.127,0,1,0-8.882-9.124A9.005,9.005,0,0,0,152.175,190.247Zm0-14.7a5.6,5.6,0,1,1-5.446,5.594A5.521,5.521,0,0,1,152.175,175.547Zm0,0" transform="translate(-138.534 -172)" fill="#6353f4" stroke="#6353f4" stroke-width="1"/>
        </g>
        <g id="Group_3821" data-name="Group 3821" transform="translate(33.15 5.008)">
          <g id="Rectangle_3418" data-name="Rectangle 3418" fill="#6353f4" stroke="#6353f4" stroke-width="1">
            <rect width="15.6" height="4.006" rx="2.003" stroke="none"/>
            <rect x="0.5" y="0.5" width="14.6" height="3.006" rx="1.503" fill="none"/>
          </g>
          <g id="Rectangle_3419" data-name="Rectangle 3419" transform="translate(0 9.013)" fill="#6353f4" stroke="#6353f4" stroke-width="1">
            <rect width="24.375" height="4.006" rx="2.003" stroke="none"/>
            <rect x="0.5" y="0.5" width="23.375" height="3.006" rx="1.503" fill="none"/>
          </g>
          <g id="Rectangle_3420" data-name="Rectangle 3420" transform="translate(0 18.026)" fill="#6353f4" stroke="#6353f4" stroke-width="1">
            <rect width="24.375" height="4.006" rx="2.003" stroke="none"/>
            <rect x="0.5" y="0.5" width="23.375" height="3.006" rx="1.503" fill="none"/>
          </g>
        </g>
      </g>
    </g>
  </g>
</svg>